<?xml version="1.0" encoding="UTF-8" standalone="no"?>
<svg
   xmlns:dc="http://purl.org/dc/elements/1.1/"
   xmlns:cc="http://creativecommons.org/ns#"
   xmlns:rdf="http://www.w3.org/1999/02/22-rdf-syntax-ns#"
   xmlns:svg="http://www.w3.org/2000/svg"
   xmlns="http://www.w3.org/2000/svg"
   id="svg117"
   version="1.1"
   width="157"
   viewBox="0 0 157 55"
   height="55"
   fill="none">
  <metadata
     id="metadata123">
    <rdf:RDF>
      <cc:Work
         rdf:about="">
        <dc:format>image/svg+xml</dc:format>
        <dc:type
           rdf:resource="http://purl.org/dc/dcmitype/StillImage" />
        <dc:title></dc:title>
      </cc:Work>
    </rdf:RDF>
  </metadata>
  <defs
     id="defs121" />
  <path
     id="path113"
     fill="#fff"
     d="m20 47c11.0457 0 20-8.9543 20-20s-8.9543-20-20-20-20 8.9543-20 20 8.9543 20 20 20z" />
  <path
     id="path115"
     fill-rule="evenodd"
     fill="#3056d3"
     d="m12.5752 30.682c-2.1213-3.5353-1.7676-6.7176 1.0607-9.5459 4.2426-4.2427 7.9549-1.591 10.6066-3.182 1.768-1.0607 2.475-2.8283 2.1213-5.3033 2.1213 3.5353 1.7677 6.7176-1.0606 9.5459-4.2427 4.2427-7.955 1.591-10.6066 3.182-1.768 1.0607-2.475 2.8283-2.1214 5.3033zm1.0607 11.6673c-2.1213-3.5353-1.7677-6.7176 1.0607-9.546 4.2426-4.2426 7.9549-1.591 10.6066-3.1819 1.7679-1.0607 2.4749-2.8284 2.1213-5.3033 2.1213 3.5353 1.7676 6.7176-1.0607 9.5459-4.2426 4.2426-7.9549 1.591-10.6066 3.182-1.768 1.0606-2.475 2.8283-2.1213 5.3033z"
     clip-rule="evenodd" />
  <text
     id="text131"
     y="25.301331"
     x="51.935364"
     style="font-style:normal;font-weight:normal;font-size:40px;line-height:24.86929131px;font-family:sans-serif;letter-spacing:0px;word-spacing:0px;fill:#000000;fill-opacity:1;stroke:none"
     xml:space="preserve"><tspan
       style="font-size:32px;line-height:24.86929131px;fill:#ffffff"
       y="25.301331"
       x="51.935364"
       id="tspan129">PROT</tspan><tspan
       id="tspan938"
       style="font-size:32px;line-height:24.86929131px;letter-spacing:0.69999999px;fill:#ffffff"
       y="52.248745"
       x="51.935364">ECTR</tspan></text>
</svg>
